<svg width="1024" height="1024" viewBox="0 0 1024 1024" fill="none" xmlns="http://www.w3.org/2000/svg">
<g clip-path="url(#clip0_42:18)">
<rect width="1024" height="1024" fill="white"/>
<g filter="url(#filter0_d_42:18)">
<circle cx="512" cy="512" r="369" stroke="#0093FF" stroke-width="110" shape-rendering="crispEdges"/>
</g>
<g filter="url(#filter1_d_42:18)">
<path d="M28.3223 959.322C18.5592 969.085 18.5592 984.915 28.3223 994.678C38.0854 1004.44 53.9146 1004.44 63.6777 994.678L28.3223 959.322ZM1002 46C1002 32.1929 990.807 21 977 21H752C738.193 21 727 32.1929 727 46C727 59.8071 738.193 71 752 71H952V271C952 284.807 963.193 296 977 296C990.807 296 1002 284.807 1002 271V46ZM63.6777 994.678L994.678 63.6777L959.322 28.3224L28.3223 959.322L63.6777 994.678Z" fill="#1F9FFD"/>
</g>
</g>
<defs>
<filter id="filter0_d_42:18" x="61" y="57" width="918" height="918" filterUnits="userSpaceOnUse" color-interpolation-filters="sRGB">
<feFlood flood-opacity="0" result="BackgroundImageFix"/>
<feColorMatrix in="SourceAlpha" type="matrix" values="0 0 0 0 0 0 0 0 0 0 0 0 0 0 0 0 0 0 127 0" result="hardAlpha"/>
<feOffset dx="8" dy="4"/>
<feGaussianBlur stdDeviation="17.5"/>
<feComposite in2="hardAlpha" operator="out"/>
<feColorMatrix type="matrix" values="0 0 0 0 0 0 0 0 0 0 0 0 0 0 0 0 0 0 0.25 0"/>
<feBlend mode="normal" in2="BackgroundImageFix" result="effect1_dropShadow_42:18"/>
<feBlend mode="normal" in="SourceGraphic" in2="effect1_dropShadow_42:18" result="shape"/>
</filter>
<filter id="filter1_d_42:18" x="-8" y="-10" width="1051" height="1051" filterUnits="userSpaceOnUse" color-interpolation-filters="sRGB">
<feFlood flood-opacity="0" result="BackgroundImageFix"/>
<feColorMatrix in="SourceAlpha" type="matrix" values="0 0 0 0 0 0 0 0 0 0 0 0 0 0 0 0 0 0 127 0" result="hardAlpha"/>
<feOffset dx="6" dy="4"/>
<feGaussianBlur stdDeviation="17.5"/>
<feComposite in2="hardAlpha" operator="out"/>
<feColorMatrix type="matrix" values="0 0 0 0 0 0 0 0 0 0 0 0 0 0 0 0 0 0 0.25 0"/>
<feBlend mode="normal" in2="BackgroundImageFix" result="effect1_dropShadow_42:18"/>
<feBlend mode="normal" in="SourceGraphic" in2="effect1_dropShadow_42:18" result="shape"/>
</filter>
<clipPath id="clip0_42:18">
<rect width="1024" height="1024" fill="white"/>
</clipPath>
</defs>
</svg>
